<svg xmlns="http://www.w3.org/2000/svg" viewBox="0 0 64 64" role="img" aria-label="Email Smart Reply icon">
  <defs>
    <linearGradient id="bg" x1="0%" y1="0%" x2="100%" y2="100%">
      <stop offset="0%" stop-color="#111827"/>
      <stop offset="100%" stop-color="#1f2937"/>
    </linearGradient>
    <linearGradient id="flap" x1="0%" y1="0%" x2="100%" y2="0%">
      <stop offset="0%" stop-color="#60a5fa"/>
      <stop offset="100%" stop-color="#3b82f6"/>
    </linearGradient>
  </defs>
  <rect width="64" height="64" rx="14" fill="url(#bg)"/>
  <path d="M14 20h36a6 6 0 0 1 6 6v18a6 6 0 0 1-6 6H14a6 6 0 0 1-6-6V26a6 6 0 0 1 6-6z" fill="#1d4ed8"/>
  <path d="M14 20h36l-18 16z" fill="url(#flap)"/>
  <path d="M14 50l16-12-16-18z" fill="#3b82f6" opacity="0.85"/>
  <path d="M50 50L34 38l16-18z" fill="#2563eb" opacity="0.85"/>
  <circle cx="45" cy="23" r="5" fill="#f97316"/>
</svg>
